<svg xmlns="http://www.w3.org/2000/svg" viewBox="0 0 927 1000" fill="none" role="img" aria-label="Morning Star Praise logo">
  <g transform="translate(0 1000) scale(0.1 -0.1)" fill="#DBAC3D">
    <path d="M4478 9494 c-3 -5 -11 -29 -18 -54 -18 -68 -359 -1284 -421 -1501
-18 -62 -21 -66 -56 -77 -57 -16 -1030 -271 -1328 -347 -300 -76 -325 -84
-325 -95 0 -9 -28 -1 325 -95 598 -158 1301 -346 1332 -356 35 -11 39 -20 73
-159 30 -122 38 -354 16 -480 -32 -183 -121 -392 -225 -531 -76 -100 -246
-258 -362 -336 -226 -151 -416 -243 -999 -485 -538 -224 -786 -348 -1059 -530
-297 -198 -533 -431 -681 -673 -78 -127 -168 -318 -210 -444 l-41 -125 32 -88
c36 -101 171 -350 290 -536 292 -455 697 -890 1132 -1215 391 -292 919 -568
1352 -707 405 -129 944 -195 1296 -159 641 65 1213 295 1749 702 334 254 654
580 920 937 414 556 725 1142 1035 1950 71 183 475 1377 475 1401 0 10 -82 36
-160 50 -104 20 -321 15 -411 -9 -82 -22 -176 -66 -247 -114 l-43 -30 -109 16
c-135 20 -278 20 -396 1 -259 -42 -503 -173 -709 -381 -102 -102 -167 -188
-307 -406 -348 -543 -439 -665 -647 -862 -69 -66 -88 -79 -77 -51 3 10 12 76
18 146 21 238 -25 457 -133 640 -86 144 -62 148 -251 -37 -265 -259 -511 -445
-720 -544 -118 -55 -237 -96 -667 -230 -325 -101 -472 -155 -635 -237 -225
-113 -394 -231 -560 -392 -190 -186 -310 -352 -426 -593 -107 -222 -178 -452
-210 -677 -6 -41 -12 -77 -15 -79 -7 -7 -227 181 -343 292 -58 56 -139 139
-180 186 l-74 85 6 80 c10 138 62 309 142 469 138 275 357 517 649 715 261
177 406 250 1005 506 670 286 979 465 1228 714 412 409 606 962 562 1602 -12
180 -20 217 -35 167 -15 -49 -130 -318 -172 -403 -25 -49 -64 -117 -88 -150
-35 -50 -46 -77 -64 -160 -34 -156 -78 -283 -146 -422 -163 -334 -459 -592
-960 -837 -104 -51 -352 -162 -550 -247 -676 -288 -973 -457 -1270 -726 -247
-223 -444 -521 -549 -831 -21 -62 -43 -111 -48 -110 -27 9 -314 501 -324 554
-9 47 19 130 85 259 82 158 169 281 289 407 129 134 221 211 379 316 287 192
518 305 1123 552 561 229 847 383 1160 626 133 103 396 360 494 484 231 290
415 647 526 1020 16 57 32 105 34 107 2 2 43 14 92 28 378 101 1010 270 1259
337 285 76 342 94 332 104 -2 2 -381 103 -841 223 -460 120 -841 222 -847 228
-5 5 -23 56 -39 114 -16 57 -59 210 -95 339 -37 129 -123 438 -191 685 -130
471 -137 495 -146 479z m3856 -4311 c-13 -53 -302 -879 -359 -1028 -310 -803
-674 -1459 -1109 -2000 -83 -104 -319 -352 -441 -464 -323 -297 -784 -576
-1185 -715 -281 -98 -613 -158 -875 -158 -375 -1 -807 90 -1225 257 -189 75
-643 315 -718 380 l-25 22 11 145 c37 463 210 844 527 1164 167 168 338 283
591 398 148 67 258 106 594 208 146 44 315 98 375 120 263 95 520 244 729 420
54 45 110 92 124 103 l25 19 -6 -119 c-7 -147 -37 -256 -111 -410 -80 -167
-166 -250 -511 -496 -102 -73 -199 -148 -215 -166 -59 -67 -64 -161 -11 -214
42 -42 114 -58 320 -70 516 -31 978 53 1369 250 315 158 581 381 833 696 214
268 322 440 665 1065 147 267 207 354 320 460 88 82 162 127 239 146 74 18 76
18 69 -13z m-770 -173 c-25 -39 -114 -198 -198 -353 -290 -535 -441 -767 -671
-1027 -133 -151 -311 -304 -468 -404 -161 -101 -403 -205 -587 -250 -166 -40
-487 -79 -479 -58 2 5 39 41 82 80 54 50 112 89 194 132 127 67 326 199 443
294 261 213 432 428 770 966 169 270 315 442 461 540 131 90 300 148 431 149
l68 1 -46 -70z"/>
  </g>
</svg>
